<?xml version="1.0" encoding="utf-8"?>
<!-- Uploaded to: SVG Repo, www.svgrepo.com, Generator: SVG Repo Mixer Tools -->
<svg width="800px" height="800px" viewBox="0 0 64 64" xmlns="http://www.w3.org/2000/svg">
<title>vietnam</title>
<g id="vietnam">
<circle cx="26.5" cy="29.5" r="22.5" style="fill:#edebdc"/>
<polygon points="38.679 13 23.607 13 21.714 10.073 31 5 40.571 10.073 38.679 13" style="fill:#e7d1c4;stroke:#4c241d;stroke-linecap:round;stroke-linejoin:round;stroke-width:2px"/>
<line x1="15" y1="62" x2="48" y2="62" style="fill:none;stroke:#4c241d;stroke-linecap:round;stroke-linejoin:round;stroke-width:2px"/>
<polygon points="43.607 62 18.679 62 25.143 13 37.143 13 43.607 62" style="fill:#fc8c29;stroke:#4c241d;stroke-linecap:round;stroke-linejoin:round;stroke-width:2px"/>
<polygon points="43.619 56 18.667 56 16.571 52 45.714 52 43.619 56" style="fill:#ffce56;stroke:#4c241d;stroke-linecap:round;stroke-linejoin:round;stroke-width:2px"/>
<polygon points="42.22 46.063 20.066 46.063 18.205 43 44.081 43 42.22 46.063" style="fill:#ffce56;stroke:#4c241d;stroke-linecap:round;stroke-linejoin:round;stroke-width:2px"/>
<polygon points="41.417 36 20.869 36 19.143 33 43.143 33 41.417 36" style="fill:#ffce56;stroke:#4c241d;stroke-linecap:round;stroke-linejoin:round;stroke-width:2px"/>
<polygon points="39.949 27 22.336 27 20.857 24 41.429 24 39.949 27" style="fill:#ffce56;stroke:#4c241d;stroke-linecap:round;stroke-linejoin:round;stroke-width:2px"/>
<polygon points="38.482 20 23.804 20 22.571 17 39.714 17 38.482 20" style="fill:#ffce56;stroke:#4c241d;stroke-linecap:round;stroke-linejoin:round;stroke-width:2px"/>
<line x1="38" y1="62" x2="33" y2="10" style="fill:none;stroke:#4c241d;stroke-linecap:round;stroke-linejoin:round;stroke-width:2px"/>
<line x1="24" y1="62" x2="29" y2="10" style="fill:none;stroke:#4c241d;stroke-linecap:round;stroke-linejoin:round;stroke-width:2px"/>
<line x1="31" y1="24" x2="31" y2="22" style="fill:none;stroke:#4c241d;stroke-linecap:round;stroke-linejoin:round;stroke-width:2px"/>
<line x1="31" y1="32" x2="31" y2="30" style="fill:none;stroke:#4c241d;stroke-linecap:round;stroke-linejoin:round;stroke-width:2px"/>
<path d="M31.04,39h0a2.04,2.04,0,0,1,2.04,2.04V43a0,0,0,0,1,0,0H29a0,0,0,0,1,0,0V41.04A2.04,2.04,0,0,1,31.04,39Z" style="fill:#9dc1e4;stroke:#4c241d;stroke-linecap:round;stroke-linejoin:round;stroke-width:2px"/>
<path d="M31.04,48h0a2.04,2.04,0,0,1,2.04,2.04V52a0,0,0,0,1,0,0H29a0,0,0,0,1,0,0V50.04A2.04,2.04,0,0,1,31.04,48Z" style="fill:#9dc1e4;stroke:#4c241d;stroke-linecap:round;stroke-linejoin:round;stroke-width:2px"/>
<path d="M31,57h0a3,3,0,0,1,3,3v2a0,0,0,0,1,0,0H28a0,0,0,0,1,0,0V60A3,3,0,0,1,31,57Z" style="fill:#9dc1e4;stroke:#4c241d;stroke-linecap:round;stroke-linejoin:round;stroke-width:2px"/>
<line x1="23" y1="10" x2="40" y2="10" style="fill:none;stroke:#4c241d;stroke-linecap:round;stroke-linejoin:round;stroke-width:2px"/>
<line x1="31" y1="5" x2="31" y2="2" style="fill:none;stroke:#4c241d;stroke-linecap:round;stroke-linejoin:round;stroke-width:2px"/>
</g>
</svg>